<?xml version="1.0" standalone="no"?>
<!DOCTYPE svg PUBLIC "-//W3C//DTD SVG 20010904//EN"
 "http://www.w3.org/TR/2001/REC-SVG-20010904/DTD/svg10.dtd">
<svg version="1.0" xmlns="http://www.w3.org/2000/svg"
 width="300.000000pt" height="300.000000pt" viewBox="0 0 300.000000 300.000000"
 preserveAspectRatio="xMidYMid meet">
<g transform="translate(0.000000,300.000000) scale(0.100000,-0.100000)"
fill="#000000" stroke="none">
<path d="M1320 2629 c-302 -50 -555 -208 -743 -466 -50 -69 -128 -223 -153
-301 -10 -34 -22 -62 -25 -62 -3 0 -4 -10 -2 -23 8 -39 -15 -46 -155 -50 -73
-2 -135 -7 -138 -10 -8 -8 -8 -437 0 -445 4 -3 53 -7 109 -8 56 -1 116 -3 134
-3 35 -1 54 -24 59 -71 4 -32 63 -180 99 -245 73 -134 184 -268 287 -346 17
-13 36 -28 42 -34 46 -41 199 -121 291 -153 70 -25 175 -50 242 -58 124 -16
369 0 442 28 14 5 35 12 45 14 40 8 146 49 146 56 0 5 7 8 15 8 16 0 117 60
187 110 51 37 156 138 190 181 12 17 28 36 34 42 26 29 93 138 120 197 27 56
39 87 71 180 3 8 7 25 9 38 6 49 17 52 165 52 l139 0 0 235 0 235 -138 0
c-143 0 -162 5 -162 42 0 49 -130 348 -151 348 -5 0 -9 5 -9 11 0 16 -83 120
-147 184 -147 147 -336 251 -548 304 -120 30 -311 34 -455 10z"/>
</g>
</svg>
